<svg version="1.1" xmlns="http://www.w3.org/2000/svg" width="360px" height="190px" transform="rotate(0) scale(1, 1)">

<path d="M0 0 C2 0.66666667 4 1.33333333 6 2 C9.23914661 1.68243661 11.9152045 1.02826517 15 0 C20.69262838 -0.56384129 25.14944138 -0.30719906 30 3 C35.37085443 8.4581854 36.38874661 12.32379194 36.45532227 19.90429688 C36.24937861 28.53548786 32.49984782 35.58671797 26.75 41.9375 C21.39672583 46.7377986 15.27350391 50.20252018 8 50.625 C0.3933509 50.17122815 -5.75345716 46.72400793 -10.875 41.1875 C-13.9080707 37.39794578 -16.13493808 33.47052531 -18 29 C-18.4125 28.030625 -18.825 27.06125 -19.25 26.0625 C-20.94198024 19.15358069 -20.68058192 12.23390073 -17 6 C-11.77483449 0.3846888 -7.37112654 -0.54878099 0 0 Z " fill="#1a1a40" transform="translate(38,70)" data-index="1" style="opacity: 1;"></path>
<path d="M0 0 C3.01665131 1.75917031 5.41424743 3.82849486 7 7 C7.88552775 15.70347276 7.12312056 22.73448357 2 30 C1.34 30.33 0.68 30.66 0 31 C-0.19916016 29.57107422 -0.19916016 29.57107422 -0.40234375 28.11328125 C-0.57894531 26.85902344 -0.75554688 25.60476562 -0.9375 24.3125 C-1.11152344 23.07113281 -1.28554688 21.82976562 -1.46484375 20.55078125 C-1.89822897 17.67525452 -2.39649282 14.84355187 -3 12 C-7.78006608 13.91202643 -11.79772953 16.02766235 -16 19 C-15.67 19.99 -15.34 20.98 -15 22 C-13.88625 21.5359375 -13.88625 21.5359375 -12.75 21.0625 C-10.49307824 20.1905075 -8.3549847 19.52332993 -6 19 C-4.25485245 24.23544264 -4.35841934 29.17656022 -6.1875 34.375 C-8.24773073 37.35878244 -9.6609948 38.60227689 -13 40 C-16.05810094 40.52052782 -17.98392341 40.61673486 -20.6796875 38.98046875 C-23.41189986 36.8169226 -24.88759448 35.33721656 -26 32 C-26.83234063 23.41500098 -26.37558676 16.91532769 -21 10 C-15.50783926 3.46049698 -9.02818985 -1.97435563 0 0 Z " fill="#f7f7f7" transform="translate(62,75)" data-index="2" style="opacity: 1;"></path>
<path d="M0 0 C4.021875 -0.0928125 4.021875 -0.0928125 8.125 -0.1875 C8.95789551 -0.21481201 9.79079102 -0.24212402 10.64892578 -0.27026367 C16.67562881 -0.33713117 20.63066656 1.06712272 25.375 4.9375 C27.96375457 9.81630668 27.84685069 14.60497704 27 20 C25.41387822 23.39976104 23.20319668 25.35416649 19.875 27.140625 C15.93266763 28.31903957 12.27352369 28.21335914 8.1875 28.125 C4.1346875 28.063125 4.1346875 28.063125 0 28 C0 18.76 0 9.52 0 0 Z " fill="#1A1A40" transform="translate(139,81)" data-index="3" style="opacity: 1;"></path>
<path d="M0 0 C2.38671875 0.02734375 2.38671875 0.02734375 5 1 C6.58203125 3.94140625 6.58203125 3.94140625 7.8125 7.5625 C8.23144531 8.76003906 8.65039062 9.95757812 9.08203125 11.19140625 C9.38496094 12.11824219 9.68789063 13.04507813 10 14 C11.423125 13.2575 11.423125 13.2575 12.875 12.5 C16 11 16 11 18 11 C18 10.34 18 9.68 18 9 C19.98 9 21.96 9 24 9 C24 15.6 24 22.2 24 29 C22.35 29 20.7 29 19 29 C19 24.38 19 19.76 19 15 C17.35 16.32 15.7 17.64 14 19 C13.34 19 12.68 19 12 19 C12.495 20.093125 12.99 21.18625 13.5 22.3125 C15 26 15 26 15 29 C13.35 29 11.7 29 10 29 C9.34 27.02 8.68 25.04 8 23 C6.96359375 23.73347656 5.9271875 24.46695313 4.859375 25.22265625 C3.49004217 26.16993444 2.12022504 27.11651284 0.75 28.0625 C-0.27287109 28.79049805 -0.27287109 28.79049805 -1.31640625 29.53320312 C-2.31220703 30.21479492 -2.31220703 30.21479492 -3.328125 30.91015625 C-4.23933105 31.54642944 -4.23933105 31.54642944 -5.16894531 32.19555664 C-7.49497667 33.21745975 -8.65344961 32.8357887 -11 32 C-11.23463893 27.42347618 -10.5764183 24.21072012 -8.84765625 19.98046875 C-8.40099609 18.87638672 -7.95433594 17.77230469 -7.49414062 16.63476562 C-6.78547852 14.92836914 -6.78547852 14.92836914 -6.0625 13.1875 C-5.59392578 12.03056641 -5.12535156 10.87363281 -4.64257812 9.68164062 C-1.16822452 1.16822452 -1.16822452 1.16822452 0 0 Z " fill="#1a1a40" transform="translate(277,80)" data-index="4" style="opacity: 1;"></path>
<path d="M0 0 C3.4183636 1.83578786 6.58762686 3.91752321 9 7 C9 7.99 9 8.98 9 10 C6.3125 10.75 6.3125 10.75 3 11 C1.31295807 9.69254251 -0.35360035 8.35827971 -2 7 C-5.30316253 6.52811964 -7.28269139 6.71685186 -10.375 7.9375 C-12.66908736 10.84922627 -12.50146205 13.21022808 -12.3125 16.8359375 C-12.07349909 19.12096559 -12.07349909 19.12096559 -10.9375 21.5625 C-7.99331646 23.74689424 -5.5547293 23.32315721 -2 23 C-1.34 22.67 -0.68 22.34 0 22 C-0.99 21.67 -1.98 21.34 -3 21 C-3 19.35 -3 17.7 -3 16 C1.29 16 5.58 16 10 16 C10 20.29 10 24.58 10 29 C8.02 29 6.04 29 4 29 C4 28.34 4 27.68 4 27 C3.360625 27.495 2.72125 27.99 2.0625 28.5 C-2.06056806 30.5194619 -5.48460607 30.72469285 -10 30 C-15.11762818 27.34641502 -18.17705942 24.46882174 -20 19 C-20.53495732 14.3958591 -20.43364314 10.91932346 -18.4375 6.6875 C-13.16349169 0.87256776 -7.7645526 -1.42845139 0 0 Z " fill="#1a1a40" transform="translate(105,80)" data-index="5" style="opacity: 1;"></path>
<path d="M0 0 C1.98 0 3.96 0 6 0 C6 9.24 6 18.48 6 28 C3.69 28 1.38 28 -1 28 C-1.66 28.33 -2.32 28.66 -3 29 C-6.87214182 29.43023798 -8.52496371 29.31669086 -11.8125 27.125 C-14.86680545 24.15796042 -15.23169897 22.34717531 -15.4375 18.1875 C-15.40528339 15.40479039 -15.37798635 13.61152792 -13.90625 11.23046875 C-11.11871021 8.65792538 -8.98544337 7.99854434 -5.25 7.625 C-2 8 -2 8 0 9 C0 6.03 0 3.06 0 0 Z " fill="#1a1a40" transform="translate(206,81)" data-index="6" style="opacity: 1;"></path>
<path d="M0 0 C1.98 0 3.96 0 6 0 C6 9.24 6 18.48 6 28 C3.69 28 1.38 28 -1 28 C-1.66 28.33 -2.32 28.66 -3 29 C-5.8125 29.375 -5.8125 29.375 -9 29 C-11.57285724 26.827365 -13.48996919 25.02006162 -15 22 C-15.5811138 14.91041162 -15.5811138 14.91041162 -13.125 11.0625 C-10.27168561 8.29310662 -9.55183789 8.0197085 -5.5 7.875 C-2 8 -2 8 0 9 C0 6.03 0 3.06 0 0 Z " fill="#1a1a40" transform="translate(229,81)" data-index="7" style="opacity: 1;"></path>
<path d="M0 0 C0 6.6 0 13.2 0 20 C-2.31 20 -4.62 20 -7 20 C-7.66 20.33 -8.32 20.66 -9 21 C-12.87214182 21.43023798 -14.52496371 21.31669086 -17.8125 19.125 C-20.86680545 16.15796042 -21.23169897 14.34717531 -21.4375 10.1875 C-21.34904355 6.36728703 -21.11383345 5.17247493 -18.9375 1.875 C-13.8008199 -1.68693146 -5.8240727 -0.25544179 0 0 Z " fill="#1a1a40" transform="translate(189,89)" data-index="8" style="opacity: 1;"></path>
<path d="M0 0 C3.02508145 1.73602105 5.41790069 3.83580137 7 7 C7.04227317 11.37950088 6.78687799 14.95082935 4.125 18.5 C0.18797636 21.27907551 -3.29083092 21.40596285 -8 21 C-11.4121353 18.87689359 -13.74948744 16.86522064 -15 13 C-15.45972376 9.97895814 -15.60025379 7.96174492 -13.94921875 5.31640625 C-9.87727285 0.30755244 -6.41405481 -1.09479229 0 0 Z " fill="#1a1a40" transform="translate(131,89)" data-index="9" style="opacity: 1;"></path>
<path d="M0 0 C5.53846154 3.07692308 5.53846154 3.07692308 7 6 C7.34708476 11.29304255 7.51351894 14.73358414 4 19 C0.57840405 21.56619697 -2.84844133 21.50984054 -7 21 C-9.63016161 18.8272578 -11.47336894 17.05326212 -13 14 C-13.5811138 6.91041162 -13.5811138 6.91041162 -11.125 3.0625 C-7.51233599 -0.44390919 -4.9799029 -0.41499191 0 0 Z " fill="#1a1a40" transform="translate(330,89)" data-index="10" style="opacity: 1;"></path>
<path d="M0 0 C1.98 0 3.96 0 6 0 C8.03993514 4.92984325 9.40652968 8.57960425 9 14 C9.66 14 10.32 14 11 14 C11.13277344 13.32453125 11.26554688 12.6490625 11.40234375 11.953125 C11.57894531 11.06109375 11.75554687 10.1690625 11.9375 9.25 C12.19853516 7.92742187 12.19853516 7.92742187 12.46484375 6.578125 C12.92368488 4.36764947 13.43336074 2.18487932 14 0 C15.98 0 17.96 0 20 0 C18.98997324 6.27121091 17.43237016 12.35559964 15.625 18.4375 C15.42817627 19.13552734 15.23135254 19.83355469 15.02856445 20.55273438 C14.10855839 23.55582132 13.29071295 25.70635647 11.0625 27.95703125 C7.99878152 29.50629798 5.37173968 29.24975849 2 29 C1.34 28.67 0.68 28.34 0 28 C0.33 26.35 0.66 24.7 1 23 C2.423125 23.0928125 2.423125 23.0928125 3.875 23.1875 C5.421875 23.0946875 5.421875 23.0946875 7 23 C7.66 22.01 8.32 21.02 9 20 C7.68 20 6.36 20 5 20 C4.1572257 17.60712296 3.32562998 15.21128981 2.5 12.8125 C2.26152344 12.13896484 2.02304688 11.46542969 1.77734375 10.77148438 C0.51272408 7.06795533 -0.30451221 3.92059464 0 0 Z " fill="#1a1a40" transform="translate(237,89)" data-index="11" style="opacity: 1;"></path>
<path d="M0 0 C2.25 1.01953125 2.25 1.01953125 4 2 C3.61328125 2.4846875 3.2265625 2.969375 2.828125 3.46875 C-4.5924386 13.01997047 -6.65562657 19.74030606 -7 32 C-9.56229028 29.72322207 -10.80703414 27.58712708 -12.125 24.4375 C-12.62386719 23.25994141 -12.62386719 23.25994141 -13.1328125 22.05859375 C-13.41898438 21.37925781 -13.70515625 20.69992188 -14 20 C-14.33 19.34 -14.66 18.68 -15 18 C-15.45209521 11.3315957 -14.87681141 6.3030057 -10.3125 1.0625 C-6.92480268 -0.49400958 -3.66835588 -0.55168633 0 0 Z " fill="#f0f0f0" transform="translate(38,75)" data-index="12" style="opacity: 1;"></path>
<path d="M0 0 C9.18762089 -0.48355899 9.18762089 -0.48355899 12.625 1.5625 C14.55058839 4.97604306 14.54218777 7.13691213 14 11 C12.625 13.9375 12.625 13.9375 10 16 C6.55567995 16.42109242 3.49274738 16.22978601 0 16 C0 10.72 0 5.44 0 0 Z " fill="#f8f8f8" transform="translate(146,87)" data-index="13" style="opacity: 1;"></path>
<path d="M0 0 C1.65 0 3.3 0 5 0 C5.33 0.66 5.66 1.32 6 2 C6.66 1.34 7.32 0.68 8 0 C10.625 -0.125 10.625 -0.125 13 0 C13 1.65 13 3.3 13 5 C12.030625 5.309375 11.06125 5.61875 10.0625 5.9375 C7.15934208 6.69523342 7.15934208 6.69523342 6 8 C5.76572222 10.01594582 5.58663876 12.038474 5.4375 14.0625 C5.35371094 15.16722656 5.26992188 16.27195312 5.18359375 17.41015625 C5.12300781 18.26480469 5.06242187 19.11945313 5 20 C3.35 20 1.7 20 0 20 C0 13.4 0 6.8 0 0 Z " fill="#1a1a40" transform="translate(304,89)" data-index="14" style="opacity: 1;"></path>
<path d="M0 0 C2.4375 0.8125 2.4375 0.8125 4.4375 2.8125 C4.78240322 6.86511287 4.73913882 8.36004176 2.4375 11.8125 C-0.5625 12.1875 -0.5625 12.1875 -3.5625 11.8125 C-5.87532587 8.34326119 -5.98728586 6.89044425 -5.5625 2.8125 C-3.8855372 0.07640281 -3.22049925 -0.23564629 0 0 Z " fill="#ffffff" transform="translate(327.5625,93.1875)" data-index="15" style="opacity: 1;"></path>
<path d="M0 0 C2.4375 0.8125 2.4375 0.8125 4.4375 2.8125 C3.86931818 8.38068182 3.86931818 8.38068182 2.4375 9.8125 C-0.5 10 -0.5 10 -3.5625 9.8125 C-5.5625 7.8125 -5.5625 7.8125 -5.875 5.375 C-5.5625 2.8125 -5.5625 2.8125 -4.375 0.9375 C-2.5625 -0.1875 -2.5625 -0.1875 0 0 Z " fill="#e6e6e6" transform="translate(225.5625,94.1875)" data-index="16" style="opacity: 1;"></path>
<path d="M0 0 C3.0625 0.1875 3.0625 0.1875 5.0625 2.1875 C5.3125 4.6875 5.3125 4.6875 5.0625 7.1875 C3.0625 9.1875 3.0625 9.1875 0.0625 9.5 C-0.9275 9.396875 -1.9175 9.29375 -2.9375 9.1875 C-4.9375 6.1875 -4.9375 6.1875 -4.625 3.5625 C-3.63731654 0.1505026 -3.65603948 0.23336422 0 0 Z " fill="#ededed" transform="translate(126.9375,94.8125)" data-index="17"></path>
<path d="M0 0 C2.375 0.6875 2.375 0.6875 3.375 1.6875 C3.5625 4.625 3.5625 4.625 3.375 7.6875 C1.375 9.6875 1.375 9.6875 -1.125 9.9375 C-3.625 9.6875 -3.625 9.6875 -5.625 7.6875 C-5.9375 4.6875 -5.9375 4.6875 -5.625 1.6875 C-2.625 -0.3125 -2.625 -0.3125 0 0 Z " fill="#ededed" transform="translate(179.625,94.3125)" data-index="18" style="opacity: 1;"></path>
<path d="M0 0 C2.9375 0.1875 2.9375 0.1875 3.9375 1.1875 C4.0625 4.6875 4.0625 4.6875 3.9375 8.1875 C2.9375 9.1875 2.9375 9.1875 0 9.375 C-3.0625 9.1875 -3.0625 9.1875 -5.0625 7.1875 C-5.3125 4.6875 -5.3125 4.6875 -5.0625 2.1875 C-3.0625 0.1875 -3.0625 0.1875 0 0 Z " fill="#f2f2f2" transform="translate(202.0625,94.8125)" data-index="19" style="opacity: 1;"></path>
<path d="M0 0 C0.66 0 1.32 0 2 0 C4.80118694 7.52818991 4.80118694 7.52818991 4 11 C1.44683953 13.42650238 -1.36984325 16 -5 16 C-3.41078475 10.63904723 -1.81027062 5.29156027 0 0 Z " fill="#f1ebfd" transform="translate(278,88)" data-index="20" style="opacity: 1;"></path>
<path d="M0 0 C0.33 0 0.66 0 1 0 C1.06058594 1.0621875 1.12117187 2.124375 1.18359375 3.21875 C1.79270238 13.63715103 1.79270238 13.63715103 3 24 C2.34 24 1.68 24 1 24 C0.67 25.32 0.34 26.64 0 28 C0 18.76 0 9.52 0 0 Z " fill="#cccccc" transform="translate(212,81)" data-index="21"></path>
<path d="M0 0 C2 1.375 2 1.375 4 3 C4 3.66 4 4.32 4 5 C2.35 5.66 0.7 6.32 -1 7 C-1.66 5.68 -2.32 4.36 -3 3 C-2.01 2.01 -1.02 1.02 0 0 Z " fill="#1a1a40" transform="translate(298,79)" data-index="22"></path>
</svg>