<svg xmlns="http://www.w3.org/2000/svg" xmlns:xlink="http://www.w3.org/1999/xlink" viewBox="0,0,256,256" width="50px" height="50px" fill-rule="nonzero"><g fill="#1a1a40" fill-rule="nonzero" stroke="none" stroke-width="1" stroke-linecap="butt" stroke-linejoin="miter" stroke-miterlimit="10" stroke-dasharray="" stroke-dashoffset="0" font-family="none" font-weight="none" font-size="none" text-anchor="none" style="mix-blend-mode: normal"><g transform="scale(5.12,5.12)"><path d="M21.33984,2.00781c-2.79687,0.10547 -8.58984,1.84766 -9.85156,3.14844c-0.48047,0.45703 -0.60156,1.14453 -0.48047,1.60156c0.23828,0.45703 9.96875,15.22266 9.96875,15.22266c1.44141,2.28906 2.19141,2.03516 2.55469,1.92188c0.35938,-0.11719 1.55859,-0.54687 1.32031,-3.29297c-0.12109,-3.09375 -1.08203,-16.71094 -1.19922,-17.39844c-0.24219,-0.57031 -0.60156,-1.03125 -1.32422,-1.14844c-0.25391,-0.05469 -0.58984,-0.07031 -0.98828,-0.05469zM36.64063,16c-0.28125,0.01172 -0.55469,0.09766 -0.79297,0.26953c-0.75,0.73828 -0.48437,0.21484 -4.80078,5.93359l-2.04297,2.62891c-0.48047,0.57031 -0.36719,1.52734 0.11328,2.21484c0.48047,0.6875 1.13281,1.05078 2.04688,0.875c0.35938,-0.11719 1.08203,-0.23047 2.39844,-0.57422c8.28125,-1.82812 8.35547,-1.81641 8.71875,-2.04297c0.47656,-0.34375 0.71875,-0.80078 0.71875,-1.48828v-0.11328c-0.24219,-1.82812 -3.79297,-6.74609 -5.47266,-7.54687c-0.30078,-0.11328 -0.60156,-0.17187 -0.88672,-0.15625zM9.39063,23.96875c-0.48047,0 -1.08203,0.23047 -1.44531,0.80078c-0.83984,1.14844 -1.09766,4.80078 -0.85937,7.32031c0.12109,0.80078 0.24219,1.45313 0.48047,1.91016c0.35938,0.57422 0.83984,0.91797 1.44141,0.91797c0.35938,0 0.08594,-0.10547 7.29297,-2.16406l3.24609,-1.03125c0.83984,-0.23047 1.42578,-0.80469 1.42578,-1.71875c0,-0.91406 -0.44531,-1.67187 -1.28516,-2.01562l-2.28125,-0.91406c-7.80859,-3.09375 -7.65625,-3.10547 -8.01562,-3.10547zM31.09375,32.02344c-0.625,-0.04687 -1.21094,0.10938 -1.65625,0.58594c-0.38672,0.42188 -0.67969,1.62109 -0.19922,2.30859l1.32031,1.94141c4.32422,6.64063 4.34766,6.98047 4.70703,7.21094c0.48047,0.45703 1.08203,0.46094 1.68359,0.23047c1.92188,-0.6875 5.67969,-5.23828 5.91797,-7.07031c0.12109,-0.57031 -0.11719,-1.14453 -0.60156,-1.71484c-0.23828,-0.23047 -0.73828,-0.3125 -7.46875,-2.40234l-3.07812,-0.97656c-0.20703,-0.05859 -0.41797,-0.09766 -0.625,-0.11328zM23.0625,34.03125c-0.64453,-0.07031 -1.26562,0.05859 -1.625,0.57422l-1.5625,1.82813c-5.40625,6.06641 -5.64453,6.41016 -5.76562,6.75391c-0.12109,0.23047 -0.12109,0.45703 -0.12109,0.6875c0.12109,0.33984 0.24219,0.57031 0.48047,0.91406c1.32031,1.375 7.15625,3.51953 9.07813,3.17578c0.60156,-0.11328 1.08203,-0.46094 1.32031,-1.03125c0.12109,-0.34375 0.11719,-0.57031 0.11719,-7.78125v-3.32031c0.00391,-1.00391 -0.4375,-1.33594 -1.28125,-1.67969c-0.20703,-0.05859 -0.42578,-0.10156 -0.64062,-0.12109z"></path></g></g></svg>